<?xml version="1.0" standalone="no"?>
<!DOCTYPE svg PUBLIC "-//W3C//DTD SVG 20010904//EN"
 "http://www.w3.org/TR/2001/REC-SVG-20010904/DTD/svg10.dtd">
<svg version="1.0" xmlns="http://www.w3.org/2000/svg"
 width="1024.000000pt" height="1024.000000pt" viewBox="0 0 1024.000000 1024.000000"
 preserveAspectRatio="xMidYMid meet">
<metadata>
Created by potrace 1.14, written by Peter Selinger 2001-2017
</metadata>
<g transform="translate(0.000000,1024.000000) scale(0.100000,-0.100000)"
fill="#000000" stroke="none">
<path d="M3968 10129 c-10 -6 -18 -17 -18 -26 0 -17 -26 -112 -40 -148 -9 -21
-11 -32 -31 -125 -6 -30 -15 -63 -20 -72 -5 -10 -9 -37 -9 -61 0 -24 -6 -49
-12 -55 -19 -19 -18 -545 1 -590 13 -31 12 -37 -22 -105 -20 -40 -53 -117 -72
-172 -20 -55 -41 -111 -46 -125 -21 -55 -46 -218 -55 -355 -6 -94 0 -150 32
-290 10 -44 77 -186 113 -238 17 -25 52 -69 78 -98 27 -30 57 -71 68 -92 11
-21 30 -49 42 -64 13 -14 23 -30 23 -34 0 -9 78 -89 125 -128 43 -36 197 -131
223 -137 12 -4 22 -10 22 -14 0 -4 10 -10 23 -13 12 -3 57 -15 101 -26 130
-35 378 -23 420 19 5 5 18 10 28 10 10 0 18 3 18 8 0 4 15 14 33 21 56 25 128
82 125 100 -3 13 -23 17 -123 22 -109 5 -232 29 -300 58 -64 28 -140 67 -143
74 -2 4 -8 7 -13 7 -14 0 -132 87 -183 135 -53 50 -135 168 -143 207 -3 15
-10 31 -14 34 -5 3 -9 32 -9 64 0 57 -15 110 -31 110 -5 0 -13 -9 -19 -20 -9
-18 -21 -20 -99 -20 -112 0 -116 4 -115 114 1 120 49 252 115 316 46 44 109
142 125 194 28 91 45 159 55 221 30 181 34 196 69 290 46 119 134 258 207 326
41 38 139 89 172 89 11 0 22 4 26 9 4 8 69 18 160 26 50 4 22 50 -80 130 -27
22 -52 42 -55 45 -19 19 -141 105 -220 155 -171 107 -409 215 -475 215 -12 0
-25 4 -30 9 -6 6 -17 6 -27 0z"/>
<path d="M6410 10082 c-30 -15 -75 -36 -100 -47 -52 -23 -153 -85 -158 -97 -2
-4 -8 -8 -13 -8 -21 0 -267 -183 -342 -254 -21 -20 -41 -36 -43 -36 -3 0 -15
-10 -28 -22 -69 -66 -107 -98 -116 -98 -5 0 -10 -4 -10 -10 0 -16 -32 -12 -76
9 -34 16 -60 28 -139 62 -66 28 -328 50 -369 31 -12 -6 -34 -13 -51 -17 -90
-20 -225 -136 -273 -235 -9 -19 -19 -37 -22 -40 -7 -7 -30 -67 -42 -110 -46
-165 -58 -261 -65 -506 l-6 -230 33 -14 c19 -8 72 -14 130 -14 83 0 104 3 143
23 58 30 111 82 127 124 6 18 16 40 21 49 12 23 12 143 0 166 -48 93 -47 92
-26 108 13 11 34 14 63 11 36 -4 50 -13 86 -52 46 -50 59 -88 49 -152 -6 -45
-35 -123 -45 -123 -5 0 -8 -5 -8 -10 0 -30 -145 -130 -189 -130 -34 0 -46 -27
-32 -68 43 -123 116 -263 204 -387 69 -98 224 -263 302 -320 22 -17 45 -35 52
-41 20 -19 160 -104 172 -104 6 0 11 -3 11 -7 0 -5 10 -13 23 -19 101 -48 336
-172 351 -186 11 -10 26 -18 33 -18 7 0 13 -4 13 -10 0 -5 5 -10 11 -10 7 0
33 -17 58 -37 57 -45 221 -210 221 -221 0 -5 11 -21 24 -37 32 -37 126 -220
126 -245 0 -11 4 -20 9 -20 4 0 11 -15 15 -32 3 -18 13 -58 22 -88 45 -154 62
-337 46 -503 -13 -128 -24 -205 -40 -272 -6 -22 -16 -67 -22 -100 -7 -33 -17
-64 -21 -70 -5 -5 -9 -18 -9 -30 0 -12 -4 -25 -8 -30 -5 -6 -17 -39 -26 -75
-18 -63 -25 -84 -46 -132 -12 -30 -80 -227 -87 -253 -2 -11 -9 -30 -14 -42 -5
-13 -13 -33 -18 -45 -5 -13 -17 -48 -26 -78 -10 -30 -21 -63 -26 -72 -5 -10
-9 -27 -9 -37 0 -11 -4 -22 -9 -25 -5 -3 -12 -23 -15 -43 -8 -42 -25 -100 -36
-123 -4 -8 -13 -39 -20 -67 -13 -50 -17 -55 -79 -90 -57 -33 -212 -175 -277
-253 -40 -48 -133 -198 -172 -276 -46 -92 -112 -264 -112 -293 0 -11 -4 -22
-9 -25 -5 -3 -12 -26 -15 -51 -7 -41 -25 -63 -27 -32 -15 187 -24 253 -54 397
-9 41 -18 89 -21 105 -3 17 -10 40 -16 52 -12 25 -8 57 21 173 12 47 26 101
31 120 5 19 16 60 25 90 15 54 38 168 56 285 5 33 13 80 18 105 27 121 21 539
-9 660 -4 19 -14 60 -20 90 -21 97 -72 253 -107 330 -69 147 -125 253 -153
285 -9 11 -32 42 -50 69 -42 62 -205 227 -291 294 -37 29 -69 52 -72 52 -3 0
-26 14 -51 31 -69 46 -210 109 -245 109 -17 0 -39 -4 -49 -9 -9 -5 -55 -16
-102 -25 -410 -76 -417 -78 -512 -105 -18 -6 -49 -14 -68 -20 -48 -13 -155
-54 -215 -81 -64 -30 -249 -140 -253 -152 -2 -4 -8 -8 -12 -8 -23 0 -276 -211
-355 -295 -92 -98 -195 -227 -195 -242 0 -7 -4 -13 -8 -13 -7 0 -105 -144
-139 -204 -16 -30 -143 -287 -153 -311 -4 -11 -14 -36 -22 -55 -8 -19 -21 -51
-28 -70 -6 -19 -16 -44 -20 -55 -14 -33 -66 -202 -99 -325 -17 -63 -36 -129
-41 -146 -6 -17 -10 -40 -10 -52 0 -11 -4 -23 -9 -26 -5 -3 -12 -27 -16 -52
-3 -26 -10 -56 -15 -68 -4 -11 -13 -41 -20 -66 -20 -73 -42 -130 -50 -130 -4
0 -10 -8 -13 -17 -6 -18 -48 -94 -57 -103 -10 -10 -60 -116 -60 -128 0 -6 -4
-12 -10 -12 -5 0 -10 -4 -10 -10 0 -5 -12 -35 -26 -67 -35 -77 -40 -89 -59
-148 -9 -27 -21 -58 -26 -67 -5 -10 -9 -29 -9 -42 0 -14 -4 -27 -9 -30 -5 -3
-12 -34 -16 -68 -4 -34 -11 -75 -16 -91 -9 -31 -14 -355 -6 -364 5 -4 47 16
57 28 3 3 20 14 37 24 18 11 33 23 33 27 0 4 5 8 12 8 6 0 19 6 27 14 19 17
112 70 164 94 20 9 37 20 37 24 0 5 4 8 10 8 5 0 34 11 65 25 30 14 80 36 110
50 31 14 61 25 68 25 7 0 17 4 22 8 6 5 44 17 85 27 41 10 80 21 85 25 6 4 28
10 50 13 100 14 304 49 400 68 83 18 786 18 960 1 200 -19 222 -21 340 -37
202 -27 201 -26 408 -64 66 -11 133 -21 151 -21 18 0 36 -4 41 -9 15 -13 102
-20 114 -8 10 10 -16 77 -31 77 -4 0 -8 8 -8 18 -1 18 -4 23 -60 93 -39 48
-178 189 -202 204 -42 27 -75 50 -93 65 -11 10 -45 30 -75 46 -30 16 -57 31
-60 35 -9 10 -90 39 -110 39 -11 0 -20 5 -20 10 0 6 -11 10 -24 10 -14 0 -27
4 -30 9 -3 5 -20 11 -38 14 -18 4 -58 11 -88 16 -30 5 -103 10 -162 10 l-108
1 0 28 c0 32 -13 51 -52 75 -35 22 -235 23 -320 3 -32 -7 -58 -9 -58 -5 0 5 7
9 15 9 8 0 15 5 15 10 0 6 6 10 13 10 6 0 41 15 77 33 73 37 144 59 303 96
108 25 328 2 494 -51 23 -7 45 -17 49 -21 4 -4 16 -7 26 -7 10 0 18 -4 18 -10
0 -5 5 -10 11 -10 12 0 81 -31 89 -39 3 -4 21 -15 40 -25 93 -51 217 -165 323
-295 52 -64 135 -214 174 -314 9 -23 20 -46 25 -51 4 -6 8 -20 8 -32 0 -13 5
-26 10 -29 6 -3 10 -17 10 -30 0 -37 2 -37 195 -64 51 -7 192 -39 400 -92 57
-15 327 -100 345 -109 9 -4 36 -11 60 -14 25 -4 54 -11 65 -15 11 -5 40 -14
65 -21 25 -7 65 -19 89 -26 25 -8 57 -14 72 -14 15 0 30 -4 33 -9 3 -5 20 -11
38 -14 18 -3 51 -10 73 -15 74 -18 115 -23 115 -13 0 5 -16 26 -35 45 -19 20
-35 43 -35 50 0 8 -3 16 -8 18 -7 3 -75 138 -92 183 -7 19 -29 124 -50 240
-36 198 -31 703 9 935 42 239 132 556 207 727 8 17 14 38 14 46 0 9 5 19 10
22 6 3 10 16 10 29 0 12 4 26 9 31 4 6 16 35 25 65 9 30 21 64 25 75 18 42 61
192 61 213 0 12 4 30 9 40 17 34 33 120 43 240 15 181 -13 547 -45 578 -4 4
-7 22 -7 40 0 18 -4 36 -10 39 -5 3 -10 14 -10 24 0 19 -25 108 -40 146 -19
47 -37 117 -61 240 -5 28 -17 147 -26 264 -15 189 -15 249 -4 490 13 290 25
654 25 781 1 151 -25 577 -40 655 -8 44 -18 94 -21 110 -3 17 -9 35 -13 40 -4
6 -11 34 -15 62 -4 29 -11 55 -16 59 -5 3 -9 15 -9 28 0 12 -4 26 -8 32 -4 5
-16 34 -27 64 -10 30 -33 88 -52 128 -18 41 -33 77 -33 82 0 5 -3 10 -8 12 -4
2 -22 34 -41 72 -35 72 -62 106 -83 106 -7 0 -38 -13 -68 -28z"/>
<path d="M4179 8459 c-54 -8 -83 -23 -121 -63 -38 -39 -35 -68 11 -119 21 -23
50 -61 65 -84 14 -24 30 -43 34 -43 4 0 20 14 36 30 16 17 35 30 43 30 7 0 13
5 13 10 0 6 5 10 10 10 14 0 56 46 76 84 20 37 12 85 -21 116 -29 27 -84 38
-146 29z"/>
<path d="M7593 5596 c-6 -7 -28 -44 -49 -82 -114 -210 -98 -194 -191 -194 -77
0 -212 -18 -226 -30 -4 -3 38 -51 93 -106 113 -113 111 -104 63 -233 -29 -77
-46 -142 -39 -149 12 -12 78 12 127 46 30 21 73 48 95 61 l41 23 39 -25 c21
-14 71 -51 109 -81 72 -57 101 -68 112 -40 6 15 -20 213 -32 245 -4 12 110 96
276 202 30 20 37 41 17 53 -6 4 -70 11 -142 15 -178 10 -177 10 -204 105 -62
216 -63 219 -89 190z"/>
<path d="M7204 4478 c-16 -13 -38 -31 -49 -41 -13 -12 -28 -16 -45 -12 -52 12
-116 16 -129 6 -12 -8 -10 -18 17 -61 18 -28 32 -54 32 -57 0 -3 -16 -26 -36
-49 -19 -24 -32 -48 -29 -54 3 -5 35 -10 69 -10 63 0 64 0 109 -50 32 -35 53
-50 71 -50 28 0 34 13 38 88 l3 44 73 30 c39 17 72 35 72 39 0 5 -12 12 -27
15 -16 4 -45 15 -65 25 -37 19 -52 52 -47 104 6 60 -10 69 -57 33z"/>
<path d="M7450 3860 c-8 -5 -25 -10 -37 -10 -39 0 -133 -51 -189 -103 -35 -31
-64 -71 -83 -110 -36 -76 -60 -144 -53 -152 9 -9 52 -5 52 5 0 14 88 52 130
56 49 5 139 -15 175 -40 65 -44 94 -116 75 -189 -39 -152 -159 -256 -334 -289
-73 -14 -83 -24 -33 -32 17 -3 75 -13 127 -23 143 -24 396 -24 478 1 34 11 71
28 82 38 10 10 23 18 29 18 19 0 68 69 93 131 33 80 53 215 38 253 -5 15 -10
45 -10 66 0 21 -4 42 -10 45 -5 3 -10 14 -10 23 0 9 -7 30 -15 46 -8 15 -15
33 -15 38 0 11 -88 119 -107 131 -7 4 -18 13 -25 20 -19 18 -116 63 -164 76
-51 14 -174 14 -194 1z"/>
<path d="M4433 3382 c-195 -2 -203 -3 -203 -22 0 -11 11 -38 25 -60 14 -22 25
-43 25 -48 0 -7 36 -88 59 -132 5 -8 29 -18 57 -22 27 -3 62 -10 77 -13 60
-16 57 27 57 -875 0 -454 -5 -842 -9 -864 -5 -21 -25 -55 -44 -75 -19 -20 -40
-54 -47 -76 -6 -22 -16 -53 -21 -69 -17 -56 -16 -56 322 -56 307 0 308 0 323
22 9 12 16 34 16 48 0 14 5 31 11 37 19 19 6 67 -23 81 -41 19 -98 82 -105
114 -3 16 -10 31 -14 34 -5 3 -9 409 -9 915 0 980 2 942 -52 999 -44 48 -60
52 -213 63 -16 1 -121 1 -232 -1z"/>
<path d="M2680 3374 c-117 -10 -270 -75 -383 -162 -35 -27 -141 -135 -160
-162 -9 -14 -30 -44 -46 -66 -43 -61 -104 -181 -125 -249 -11 -33 -23 -64 -26
-70 -4 -5 -10 -21 -13 -35 -3 -14 -13 -56 -22 -95 -27 -110 -36 -196 -42 -395
-5 -180 7 -332 28 -372 5 -10 9 -31 9 -48 0 -16 6 -49 14 -72 7 -24 19 -63 26
-88 8 -25 17 -49 22 -54 4 -6 8 -17 8 -26 0 -25 76 -166 134 -248 60 -85 159
-185 221 -222 22 -13 42 -27 45 -30 7 -9 149 -77 190 -90 27 -9 163 -27 235
-30 6 0 51 4 101 9 115 11 220 59 301 138 29 29 61 57 71 61 10 6 65 5 137 -1
207 -17 333 18 421 117 42 47 47 49 57 32 7 -10 24 -32 40 -48 15 -17 27 -34
27 -40 0 -5 4 -7 9 -4 5 3 12 -1 15 -10 4 -9 9 -14 13 -11 3 4 11 2 18 -3 31
-26 271 -39 314 -17 24 12 29 19 51 72 48 115 49 108 -17 153 -64 44 -113 94
-113 116 0 8 -4 18 -10 21 -6 4 -10 81 -11 193 -2 344 -15 551 -39 607 -4 11
-16 41 -27 67 -10 27 -21 48 -25 48 -5 0 -8 7 -8 15 0 20 -103 125 -124 125
-9 0 -16 3 -16 8 0 13 -97 53 -158 64 -77 15 -124 14 -342 -7 -176 -17 -213
-26 -190 -49 6 -6 10 -17 10 -25 0 -17 69 -161 86 -178 8 -8 49 -12 127 -12
95 0 121 -3 153 -19 99 -51 122 -104 131 -301 l4 -104 -83 7 c-269 21 -266 21
-373 -22 -36 -15 -135 -100 -135 -116 0 -4 -9 -19 -21 -35 -11 -15 -24 -43
-29 -62 -39 -153 -41 -166 -35 -234 8 -86 -7 -128 -69 -190 -65 -65 -123 -87
-227 -87 -72 1 -93 5 -135 27 -55 28 -144 110 -144 132 0 7 -4 13 -10 13 -5 0
-10 8 -10 18 0 10 -4 22 -8 28 -5 5 -17 32 -26 59 -10 28 -21 59 -26 70 -17
43 -40 133 -40 156 0 14 -4 29 -9 35 -5 5 -12 32 -15 59 -37 306 -31 731 14
915 5 19 17 67 26 105 9 39 21 74 26 79 4 6 8 16 8 24 0 8 23 49 50 91 45 67
58 80 113 106 104 50 225 40 296 -26 52 -48 61 -89 61 -279 0 -123 4 -180 12
-188 14 -14 116 -16 137 -3 11 7 17 45 22 148 4 76 12 223 18 328 9 168 9 191
-5 207 -19 20 -156 88 -179 88 -8 0 -23 4 -33 9 -53 27 -189 43 -292 35z
m1124 -1816 c-3 -40 -10 -83 -15 -95 -25 -61 -37 -80 -73 -115 -44 -43 -89
-49 -141 -19 -34 19 -74 92 -75 134 0 53 29 121 63 144 28 19 46 22 139 22
l108 1 -6 -72z"/>
<path d="M5370 3254 c-66 -12 -139 -70 -160 -128 -7 -17 -16 -39 -21 -48 -12
-24 -12 -125 1 -133 6 -3 10 -15 10 -26 0 -41 49 -98 112 -130 52 -27 174 -26
227 1 36 18 79 65 109 117 20 37 15 156 -9 207 -23 50 -80 106 -124 123 -36
14 -110 23 -145 17z"/>
<path d="M6785 2854 c-31 -8 -67 -26 -103 -52 -36 -26 -102 -121 -102 -147 0
-8 -4 -15 -9 -15 -5 0 -12 -11 -15 -24 -6 -25 -8 -25 -139 -29 -72 -2 -150 -8
-172 -14 -46 -12 -138 -53 -143 -65 -2 -4 -9 -8 -16 -8 -13 0 -126 -102 -126
-114 0 -4 -8 -15 -17 -26 -10 -10 -26 -41 -36 -67 -11 -26 -23 -57 -27 -68
-37 -88 -37 -241 0 -330 5 -11 16 -41 25 -67 16 -42 87 -128 107 -128 18 0 6
-29 -19 -46 -36 -23 -51 -38 -77 -77 -55 -84 -83 -205 -57 -255 5 -9 14 -28
20 -42 22 -47 103 -121 154 -140 17 -6 40 -16 49 -21 10 -5 27 -9 38 -9 11 0
28 -4 38 -9 19 -10 132 -28 240 -37 40 -4 75 -11 78 -15 3 -5 16 -9 30 -9 34
0 137 -54 177 -93 39 -38 87 -110 87 -132 0 -8 4 -15 9 -15 15 0 23 -160 11
-215 -6 -27 -14 -62 -17 -77 -3 -16 -9 -28 -13 -28 -4 0 -10 -10 -14 -22 -8
-32 -60 -84 -109 -110 -35 -19 -59 -22 -147 -23 -95 0 -110 3 -161 27 -73 37
-136 99 -145 144 -3 19 -10 37 -15 40 -16 9 -10 39 11 57 11 9 23 17 26 17 18
0 94 65 117 99 21 32 27 53 27 96 0 65 -21 105 -76 143 -36 25 -47 27 -134 27
-82 -1 -103 -4 -150 -27 -123 -59 -210 -201 -210 -343 0 -50 16 -129 31 -157
5 -10 9 -23 9 -29 0 -15 84 -140 118 -176 15 -16 45 -42 67 -58 22 -17 42 -32
45 -35 6 -6 58 -31 105 -50 17 -7 39 -16 50 -21 49 -21 179 -39 276 -39 157 0
264 30 387 107 59 37 152 120 152 136 0 5 8 17 18 26 20 19 36 44 58 91 8 19
19 42 24 51 12 23 36 124 51 211 10 60 10 88 1 128 -7 28 -12 65 -12 82 0 35
-28 138 -41 152 -5 6 -9 16 -9 24 0 21 -58 101 -115 157 -55 56 -105 93 -150
114 -16 7 -38 18 -49 23 -22 11 -145 36 -286 57 -142 21 -206 33 -222 42 -10
5 -26 9 -36 9 -24 0 -42 19 -42 45 0 19 5 20 162 20 173 1 201 6 307 60 65 32
170 138 200 200 25 51 29 61 51 129 16 51 16 242 0 292 -30 93 -58 151 -99
201 l-33 43 37 75 c21 41 42 75 46 75 5 0 8 3 8 8 -3 16 2 31 14 44 12 13 27
39 69 116 17 34 19 44 8 57 -7 8 -20 15 -29 15 -9 0 -21 4 -27 10 -11 11 -110
21 -139 14z m-295 -508 c20 -13 41 -34 47 -47 39 -78 43 -102 43 -260 0 -87
-4 -160 -9 -163 -4 -3 -11 -18 -14 -33 -13 -59 -82 -113 -145 -113 -130 0
-182 93 -182 324 0 172 25 248 100 298 39 26 118 23 160 -6z"/>
<path d="M5385 2600 c-11 -5 -35 -9 -53 -9 -18 -1 -40 -5 -50 -10 -9 -5 -50
-16 -90 -26 -105 -24 -132 -40 -132 -75 0 -33 44 -140 63 -152 7 -4 22 -8 35
-8 12 0 34 -7 47 -16 l25 -16 0 -459 c0 -509 0 -506 -67 -582 -23 -26 -33 -47
-33 -70 0 -18 -5 -38 -11 -44 -6 -6 -9 -21 -7 -34 l3 -24 305 -3 c301 -2 305
-2 323 19 9 12 17 33 17 48 0 15 5 32 11 38 14 14 -1 38 -50 79 -19 15 -44 52
-57 81 l-23 52 -1 535 c0 502 -1 538 -19 579 -22 52 -61 82 -122 96 -52 12
-87 13 -114 1z"/>
<path d="M7410 2555 c-103 -36 -159 -72 -242 -157 -38 -38 -68 -75 -68 -83 0
-7 -4 -15 -8 -17 -11 -4 -62 -112 -62 -130 0 -8 -4 -18 -8 -23 -21 -24 -62
-252 -62 -339 0 -61 35 -242 60 -316 24 -69 57 -136 78 -158 6 -7 12 -18 12
-24 0 -24 151 -156 212 -185 111 -53 179 -66 296 -59 56 4 114 11 130 17 15 7
36 15 47 19 71 26 128 64 192 125 40 38 73 75 73 82 0 7 3 13 8 13 16 0 80
145 88 202 4 24 10 48 14 53 25 34 33 314 13 415 -19 92 -38 163 -57 205 -46
102 -65 132 -128 200 -66 70 -105 96 -243 155 -47 21 -289 24 -345 5z m223
-227 c112 -64 137 -154 137 -508 0 -231 -14 -368 -41 -395 -5 -5 -9 -16 -9
-25 0 -17 -39 -56 -77 -77 -69 -39 -168 14 -208 109 -9 24 -22 54 -29 67 -7
16 -11 125 -11 335 0 364 3 384 77 459 42 42 52 47 93 47 25 0 55 -6 68 -12z"/>
</g>
</svg>
